# xmcd
# 
# Track frame offsets:
#     182
#     13945
#     27475
#     41800
#     54312
#     68610
#     82710
#     97247
#     109880
#     124500
#     138282
#     153585
#     169027
#     183245
#     195320
#     208805
#     220862
#     233702
#     246680
#     258475
#     271887
#     286332
# 
# Disc length: 4018
# 
# Revision: 5
# Processed by: cddbd v1.5.2PL0 Copyright (c) Steve Scherf et al.
# Submitted via: BonkEnc v1.0.8
# 
DISCID=3e0fb016
DTITLE=Various Artist - Best Of Blues Records Presents The Pre-War Blues Story 1926-1943
DYEAR=1994
DGENRE=Blues
TTITLE0=Barbecue Bob - Poor Boy A Long Ways From Home (1927)
TTITLE1=Skip James - Devil Got My Woman (1931) 
TTITLE2=Charlie Patton - High Sheriff Blues (1934)
TTITLE3=Blind Lemon Jefferson - Jack O'Diamond Blues (1926)
TTITLE4=Son House - My Black Mama - Part 1 (1930)
TTITLE5=Leroy Carr - How Long, How Long Blues (1928) 
TTITLE6=Charlie Spand - Moanin' the Blues (1929) 
TTITLE7=Memphis Minnie - Bumble Bee (1929)
TTITLE8=Ma Rainey - Daddy Goodbye Blues (1928)
TTITLE9=Tampa Red - It's Tight Like That (1928) 
TTITLE10=Bessie Smith - Back Water Blues (1927) 
TTITLE11=Pinetop Perkins - Pinetop's Boogie Woogie (1928) 
TTITLE12=Sleepy John Estes - Down South Blues (1935)
TTITLE13=Memphis Jug Band - Gator Wobble (1934)
TTITLE14=Louis Armstrong - I'm Not Rough (1927) 
TTITLE15=Lonnie Johnson - Got The Blues For The West End (1937) 
TTITLE16=Big Joe Williams - Baby Please Don't Go (1935) 
TTITLE17=Tommy McClennan - New Highway 51 (1940) 
TTITLE18=Arthur "Big Boy" Crudup - Mean Old 'Frisco Blues (1942) 
TTITLE19=Robert Johnson - I Believe I'll Dust My Broom (1936)
TTITLE20=Kokomo Arnold - Milk Cow Blues (1934)
TTITLE21=Casey Bill Weldon - Somebody Changed The Lock On My Door (1935) 
EXTD=
EXTT0=
EXTT1=
EXTT2=
EXTT3=
EXTT4=
EXTT5=
EXTT6=
EXTT7=
EXTT8=
EXTT9=
EXTT10=
EXTT11=
EXTT12=
EXTT13=
EXTT14=
EXTT15=
EXTT16=
EXTT17=
EXTT18=
EXTT19=
EXTT20=
EXTT21=
PLAYORDER=
